<?xml version="1.0" encoding="UTF-8"?>
<svg id="Layer_1" data-name="Layer 1" xmlns="http://www.w3.org/2000/svg" viewBox="0 0 312.58 159.42">
  <defs>
    <style>
      .cls-1 {
        font-size: 41.94px;
        letter-spacing: .23em;
        stroke: #4c3728;
        stroke-miterlimit: 10;
        stroke-width: .5px;
      }

      .cls-1, .cls-2 {
        font-family: AmeryNormal, Amery;
      }

      .cls-1, .cls-2, .cls-3 {
        fill: #4c3728;
      }

      .cls-2 {
        font-size: 133.81px;
      }

      .cls-3 {
        stroke-width: 0px;
      }
    </style>
  </defs>
  <text class="cls-1" transform="translate(7.84 139.33)"><tspan x="0" y="0" xml:space="preserve">CREATI  NS</tspan></text>
  <path class="cls-3" d="m21.4,83.43V30.86c0-2.24-1.2-3.83-3.6-4.79l-3.81-.29c-3.34-.24-5.01-.93-5.01-2.07,0-1.43.93-2.31,2.79-2.64l6,.29,8.71.14h20.64c13.71,0,22.97,4.64,27.78,13.93,1.57,3.05,2.36,6.36,2.36,9.93,0,7.67-2.63,14.19-7.88,19.57-5.25,5.38-11.73,8.07-19.42,8.07-3.92,0-7.33-.55-10.25-1.64l-5.16-1.93c-.48.33-.72.6-.72.79v17.85c0,3.24.14,6.64.43,10.21.24,3.1.71,4.9,1.43,5.43.43.33,2.4.74,5.93,1.21,3.29.43,4.93,1.24,4.93,2.43,0,.62-.24,1.07-.71,1.36l-1.93.64-2-.21-4-.14h-8.78l-17.07.36-1.64-.36c-.29-.48-.43-.81-.43-1,0-1,1.12-1.81,3.36-2.43,1.57-.48,3.14-.93,4.71-1.36,1.29-.71,2.17-1.9,2.64-3.57l.57-7.14v-3.79l.14-6.28Zm11.86-20.07c0,2.33,2.97,3.5,8.93,3.5,6.81,0,12.19-1.67,16.14-5,4.24-3.57,6.36-8.69,6.36-15.35,0-6.05-1.94-10.96-5.82-14.75-3.88-3.79-8.87-5.68-14.96-5.68-4.48,0-7.33.55-8.57,1.64-1.38,1.24-2.07,4.05-2.07,8.43v27.21Z"/>
  <path class="cls-3" d="m161.28,98.69c0-10.43.88-15.64,2.64-15.64,1,0,1.81,1.62,2.43,4.86l.64,3.36c.86,4.43,3.4,8.07,7.64,10.93,3.9,2.67,8.21,4,12.93,4,11.9,0,17.85-5.12,17.85-15.35,0-3.95-1.36-7.43-4.07-10.43-2.95-3.24-7.74-6.55-14.36-9.93-7.43-3.76-12.9-7.43-16.43-11-5.05-5.09-7.57-10.97-7.57-17.64,0-7.09,2.64-12.76,7.93-17,4.9-3.9,11-5.86,18.28-5.86,9.9,0,15.95,1.43,18.14,4.29.48.67.76,2.36.86,5.07l.29,10.28-.43,2.14c-.29.43-.71.74-1.29.93-1.1,0-1.93-1.21-2.5-3.64-.29-2.14-.79-3.86-1.5-5.14-3.29-5.95-8.45-8.93-15.5-8.93-4.38,0-7.95,1.1-10.71,3.29-3,2.38-4.5,5.71-4.5,10,0,6.43,5.07,12.05,15.21,16.85l1.5.71c7.95,3.81,13.83,7.5,17.64,11.07,5.57,5.24,8.36,11.31,8.36,18.21,0,9-2.86,15.88-8.57,20.64-5.33,4.48-12.57,6.71-21.71,6.71-7.71,0-14.57-1.71-20.57-5.14-1.43-.81-2.26-2.02-2.5-3.64-.1-.62-.14-1.59-.14-2.93v-1.07Z"/>
  <text class="cls-2" transform="translate(70.4 105.17)"><tspan x="0" y="0">&amp;</tspan></text>
  <g>
    <path class="cls-3" d="m230.49,133.99c.83-2.77,1.04-5.38.26-8.18h-22.22l-.52.52-.47.82c-.43,1.98-.26,4.07.45,5.96.63,1.68,1.61,3.42,3.01,4.58,3.43,2.86,7.41,4.68,11.19,6.98.15.09,2.81-1.49,3.19-1.67,1.29-.61,2.41-1.48,3.59-2.26,1.3-.86,2.56-1.77,3.7-2.83,3.09-2.84,5.14-6.95,4.05-11.2-.11-.42-.35-.91-.78-.91-.72,0-1.43,0-2.15,0,.27,2.42-.45,5.71-1.74,7.79-.84,1.34-1.97,2.51-3.28,3.4l-.78.66s1.44-1.73,1.44-1.73c.48-.58.86-1.22,1.07-1.94Z"/>
    <path class="cls-3" d="m225.34,102.9c.83-.22,1.68-.36,2.52-.54.44-.09.87-.19,1.31-.29,1.23-.28,2.66-.98,3.85-1.42.55-.2,1.45-.67,1.99-.89.55-.23,1.09-.49,1.63-.75.32-.15.64-.31.96-.45,1.16-.52,2.26-1.13,3.36-1.77,1.16-.68,2.31-1.4,3.46-2.11,13.23-8.26,23.19-20.98,30.57-34.73-8.31,21-22.76,38.32-44.42,44.71,2.03,1.01,6.04.61,8.31.62,6.15.02,6.75-.42,12.86-1.13,2.55-.3,5.52-.97,6.54-3.33.85-1.96-.04-4.44,1.09-6.25,1.05-1.69,3.31-2.03,5.28-2.3,4.86-.67,9.64-1.96,14.18-3.82,2.89-1.19,5.96-2.91,6.91-5.89.34-1.06.38-2.2.83-3.21.98-2.17,3.5-3.07,5.57-4.25,3.61-2.06,6.34-5.6,7.43-9.61.35-1.29.49-2.79-.35-3.83-1.8-2.22-6.2-.29-7.84-2.63-1.04-1.48-.1-3.51.98-4.96,1.94-2.57,4.38-4.84,5.62-7.81,1.24-2.97.74-7.05-2.13-8.51-1.05-.53-2.02-.2-2-1.38,0-.34,1-1.23,1.13-1.54,1.18-2.79.36-5.59-1.23-8.03-.92-1.41.01-4.41-.46-5.99-.22-.74-1.07-1.49-1.81-1.73-.5-.17-1.05,0-1.55.17-1.61.54-2.83,2.55-4.38,3.28-2.09.98-4.45.8-5.82,2.64-1.03,1.38-2.19,3.27-3.87,2.91-1.03-.22-1.69-1.25-2.66-1.65-2.13-.88-4.1,1.58-4.9,3.74-1.02,2.78-1.6,5.71-1.73,8.67-.08,2.01-.57,4.74-2.59,4.8-2.12.06-2.67-2.89-4.03-4.51-1.19-1.42-3.42-1.83-5.04-.93-2.17,1.21-2.75,4.04-2.85,6.52-.1,2.48-.04,5.2-1.58,7.14-1.5,1.89-4.24,2.63-5.35,4.76-.73,1.41-.57,3.11-.29,4.68.98,5.54,3.08,7.72,2.01,13.73-.11.61-.67,2.13-1.29,2.24-2.91.49-3.32-1.18-4.47-1.37-2.45-.41-4.22,4.71-5.37,6.91s-5.33,2.21-6.01,4.59c-.68,2.38.28,5.02-1.56,6.68-1.04.94-1.38,1.24-3.25,2.27-1.11.61-10.73,3.32-11.73,4.01-.68,1.32-1.85,3.46-3.05,4.41.14-.11.33-.14.5-.17.21-.04.41-.09.61-.13.51-.11,1.03-.18,1.55-.26.48-.07.97-.15,1.46-.18.23-.01.45-.04.68-.04s.47.03.7.08c.29.06.57.13.85.23.38.13.75.3,1.06.56s.58.62.79.97c.1.17.19.34.28.52.23.49.52,1.01.43,1.56,0,.02,0,.03-.02.05-.01.01-.03.02-.04.03-1.41.58-2.81,1.16-4.18,1.83-1.35.66-2.66,1.41-3.85,2.32-.39.3-.78.62-1.14.95-2.61,2.39-4.36,6.02-3.56,9.46,10.19,0,20.37,0,30.56,0,.81-4.32-1.32-9.04-5.09-11.29-1.11-.66-2.32-1.13-3.51-1.64-.55-.23-1.08-.53-1.64-.74-.52-.2-.96-.48-1.34-.89-.26-.28-.48-.59-.65-.93-.17-.34-.38-.66-.49-1.03-.14-.47-.05-.94.1-1.4.12-.39.27-.8.48-1.15.09-.15.19-.29.33-.39.11-.08.24-.14.38-.17Z"/>
  </g>
</svg>