<?xml version="1.0" encoding="UTF-8"?>
<svg id="Layer_1" data-name="Layer 1" xmlns="http://www.w3.org/2000/svg" viewBox="0 0 312.58 298.99">
  <defs>
    <style>
      .cls-1 {
        fill: #fff;
      }

      .cls-2 {
        fill: #996632;
        stroke: #8b5e3c;
      }

      .cls-2, .cls-3 {
        stroke-miterlimit: 10;
        stroke-width: .25px;
      }

      .cls-3 {
        fill: none;
        stroke: #fff;
      }
    </style>
  </defs>
  <rect class="cls-2" y=".37" width="312.58" height="298.99"/>
  <g>
    <g>
      <path class="cls-1" d="M117.6,208.78c-1.58-1.16-2.63-5.16-3.16-12.01-.63-7.9-.95-15.43-.95-22.59v-39.5c0-.42.53-1,1.58-1.74l11.41,4.27c1.96.74,4.06,1.32,6.23,1.84-1.33-3.82-2.27-7.77-2.8-11.84-11.74-.27-17.68-2.81-17.68-7.69v-60.19c0-9.69,1.53-15.9,4.58-18.64,2.74-2.42,9.06-3.63,18.96-3.63,13.48,0,24.51,4.19,33.1,12.56,3.8,3.71,6.71,7.94,8.83,12.62,5.55-1.18,11.4-1.81,17.58-1.81,3.68,0,7.11.1,10.36.27-.43-.99-.81-1.99-1.3-2.95-10.64-20.54-31.12-30.81-61.46-30.81h-45.66l-19.27-.32-13.27-.63c-4.11.74-6.16,2.69-6.16,5.85,0,2.53,3.7,4.06,11.09,4.58l8.44.63c5.31,2.11,7.97,5.64,7.97,10.59v116.28l-.32,13.9v8.37l-1.26,15.8c-1.05,3.69-3,6.32-5.85,7.9-3.48.95-6.95,1.95-10.43,3-4.95,1.37-7.43,3.16-7.43,5.37,0,.42.32,1.16.95,2.21l3.63.79,37.76-.79h19.43l4.14.15c.48-3.68,1.14-6.84,2.05-9.44-6.51-.93-10.23-1.73-11.09-2.4Z"/>
      <path class="cls-3" d="M117.6,208.78c-1.58-1.16-2.63-5.16-3.16-12.01-.63-7.9-.95-15.43-.95-22.59v-39.5c0-.42.53-1,1.58-1.74l11.41,4.27c1.96.74,4.06,1.32,6.23,1.84-1.33-3.82-2.27-7.77-2.8-11.84-11.74-.27-17.68-2.81-17.68-7.69v-60.19c0-9.69,1.53-15.9,4.58-18.64,2.74-2.42,9.06-3.63,18.96-3.63,13.48,0,24.51,4.19,33.1,12.56,3.8,3.71,6.71,7.94,8.83,12.62,5.55-1.18,11.4-1.81,17.58-1.81,3.68,0,7.11.1,10.36.27-.43-.99-.81-1.99-1.3-2.95-10.64-20.54-31.12-30.81-61.46-30.81h-45.66l-19.27-.32-13.27-.63c-4.11.74-6.16,2.69-6.16,5.85,0,2.53,3.7,4.06,11.09,4.58l8.44.63c5.31,2.11,7.97,5.64,7.97,10.59v116.28l-.32,13.9v8.37l-1.26,15.8c-1.05,3.69-3,6.32-5.85,7.9-3.48.95-6.95,1.95-10.43,3-4.95,1.37-7.43,3.16-7.43,5.37,0,.42.32,1.16.95,2.21l3.63.79,37.76-.79h19.43l4.14.15c.48-3.68,1.14-6.84,2.05-9.44-6.51-.93-10.23-1.73-11.09-2.4Z"/>
    </g>
    <g>
      <path class="cls-1" d="M181.39,88.62c-1.2,11.65-5.74,20.86-13.71,27.57-.18.16-.39.29-.58.44,2.38,5.21,7.18,10.24,14.36,15.04,3.76-2.43,7.33-5.29,10.65-8.69,8.68-8.89,14.12-19.2,16.31-30.91-4.74-3.09-10.45-4.63-17.41-4.63-3.58,0-6.74.42-9.63,1.17Z"/>
      <path class="cls-3" d="M181.39,88.62c-1.2,11.65-5.74,20.86-13.71,27.57-.18.16-.39.29-.58.44,2.38,5.21,7.18,10.24,14.36,15.04,3.76-2.43,7.33-5.29,10.65-8.69,8.68-8.89,14.12-19.2,16.31-30.91-4.74-3.09-10.45-4.63-17.41-4.63-3.58,0-6.74.42-9.63,1.17Z"/>
    </g>
    <g>
      <path class="cls-1" d="M172.58,71.83c2.48-.82,5.06-1.46,7.72-1.98"/>
      <path class="cls-3" d="M172.58,71.83c2.48-.82,5.06-1.46,7.72-1.98"/>
    </g>
    <g>
      <path class="cls-1" d="M216.95,88.64c3.19,2.87,6.01,6.35,8.34,10.57,1.58,2.84,2.69,6.64,3.32,11.37,1.26,5.37,3.1,8.06,5.53,8.06,1.26-.42,2.21-1.11,2.84-2.05l.95-4.74-.63-22.75c-.21-6-.84-9.74-1.9-11.22-3-3.91-9.28-6.6-18.82-8.1.56,3.23.94,6.52.94,9.91,0,3.05-.23,6.02-.57,8.94Z"/>
      <path class="cls-3" d="M216.95,88.64c3.19,2.87,6.01,6.35,8.34,10.57,1.58,2.84,2.69,6.64,3.32,11.37,1.26,5.37,3.1,8.06,5.53,8.06,1.26-.42,2.21-1.11,2.84-2.05l.95-4.74-.63-22.75c-.21-6-.84-9.74-1.9-11.22-3-3.91-9.28-6.6-18.82-8.1.56,3.23.94,6.52.94,9.91,0,3.05-.23,6.02-.57,8.94Z"/>
    </g>
    <g>
      <path class="cls-1" d="M157.36,108.85c0-9.48,3.32-16.85,9.95-22.12,1.95-1.55,4.1-2.82,6.42-3.87,0-.21.02-.41.02-.63,0-3.74-.42-7.18-1.18-10.4-6.54,2.16-12.46,5.32-17.74,9.53-11.69,9.37-17.54,21.91-17.54,37.6,0,.04,0,.08,0,.11,8.08-.57,14.92-2.49,20.47-5.71-.26-1.49-.42-2.99-.42-4.52Z"/>
      <path class="cls-3" d="M157.36,108.85c0-9.48,3.32-16.85,9.95-22.12,1.95-1.55,4.1-2.82,6.42-3.87,0-.21.02-.41.02-.63,0-3.74-.42-7.18-1.18-10.4-6.54,2.16-12.46,5.32-17.74,9.53-11.69,9.37-17.54,21.91-17.54,37.6,0,.04,0,.08,0,.11,8.08-.57,14.92-2.49,20.47-5.71-.26-1.49-.42-2.99-.42-4.52Z"/>
    </g>
    <g>
      <path class="cls-1" d="M146.42,148.73c2.16,3.2,4.69,6.29,7.62,9.26,7.79,7.9,19.91,16.01,36.34,24.33,14.64,7.48,25.22,14.8,31.75,21.96,6,6.64,9.01,14.32,9.01,23.07,0,22.65-13.17,33.97-39.5,33.97-10.43,0-19.96-2.95-28.6-8.85-9.38-6.32-15.01-14.38-16.9-24.17l-.53-2.77c-.47.4-.91.83-1.46,1.15l-.76.46-6.75,2.25-2.74-.29c-.26,4.44-.4,9.63-.4,15.63v2.37c0,2.95.1,5.11.32,6.48.53,3.58,2.37,6.27,5.53,8.06,13.27,7.58,28.44,11.37,45.5,11.37,20.22,0,36.23-4.95,48.03-14.85,12.64-10.53,18.96-25.75,18.96-45.66,0-15.27-6.16-28.7-18.48-40.29-8.43-7.9-21.43-16.06-39.02-24.49l-3.32-1.58c-3.49-1.65-6.67-3.36-9.62-5.1-9.61,5.17-20.39,7.79-32.24,7.79-.94,0-1.82-.08-2.74-.1Z"/>
      <path class="cls-3" d="M146.42,148.73c2.16,3.2,4.69,6.29,7.62,9.26,7.79,7.9,19.91,16.01,36.34,24.33,14.64,7.48,25.22,14.8,31.75,21.96,6,6.64,9.01,14.32,9.01,23.07,0,22.65-13.17,33.97-39.5,33.97-10.43,0-19.96-2.95-28.6-8.85-9.38-6.32-15.01-14.38-16.9-24.17l-.53-2.77c-.47.4-.91.83-1.46,1.15l-.76.46-6.75,2.25-2.74-.29c-.26,4.44-.4,9.63-.4,15.63v2.37c0,2.95.1,5.11.32,6.48.53,3.58,2.37,6.27,5.53,8.06,13.27,7.58,28.44,11.37,45.5,11.37,20.22,0,36.23-4.95,48.03-14.85,12.64-10.53,18.96-25.75,18.96-45.66,0-15.27-6.16-28.7-18.48-40.29-8.43-7.9-21.43-16.06-39.02-24.49l-3.32-1.58c-3.49-1.65-6.67-3.36-9.62-5.1-9.61,5.17-20.39,7.79-32.24,7.79-.94,0-1.82-.08-2.74-.1Z"/>
    </g>
    <g>
      <path class="cls-1" d="M149.16,140.84c-2.55,0-4.97-.14-7.32-.35,1.26,2.82,2.79,5.57,4.58,8.23.92.03,1.8.1,2.74.1,11.85,0,22.63-2.62,32.24-7.79-2.83-1.67-5.42-3.38-7.75-5.13-7.43,3.26-15.58,4.94-24.49,4.94Z"/>
      <path class="cls-3" d="M149.16,140.84c-2.55,0-4.97-.14-7.32-.35,1.26,2.82,2.79,5.57,4.58,8.23.92.03,1.8.1,2.74.1,11.85,0,22.63-2.62,32.24-7.79-2.83-1.67-5.42-3.38-7.75-5.13-7.43,3.26-15.58,4.94-24.49,4.94Z"/>
    </g>
    <g>
      <path class="cls-1" d="M173.76,82.23c0,.22-.02.41-.02.63,2.44-1.11,5.08-1.95,7.93-2.51-.12-3.7-.57-7.2-1.37-10.5-2.66.52-5.24,1.17-7.72,1.98.76,3.22,1.18,6.66,1.18,10.4Z"/>
      <path class="cls-3" d="M173.76,82.23c0,.22-.02.41-.02.63,2.44-1.11,5.08-1.95,7.93-2.51-.12-3.7-.57-7.2-1.37-10.5-2.66.52-5.24,1.17-7.72,1.98.76,3.22,1.18,6.66,1.18,10.4Z"/>
    </g>
    <g>
      <path class="cls-1" d="M209.38,83.49c2.75,1.36,5.27,3.08,7.57,5.15.34-2.92.57-5.88.57-8.94,0-3.39-.38-6.68-.94-9.91-2.5-.39-5.29-.68-8.24-.9.78,3.48,1.2,7.08,1.2,10.82,0,1.29-.1,2.53-.16,3.79Z"/>
      <path class="cls-3" d="M209.38,83.49c2.75,1.36,5.27,3.08,7.57,5.15.34-2.92.57-5.88.57-8.94,0-3.39-.38-6.68-.94-9.91-2.5-.39-5.29-.68-8.24-.9.78,3.48,1.2,7.08,1.2,10.82,0,1.29-.1,2.53-.16,3.79Z"/>
    </g>
    <g>
      <path class="cls-1" d="M143.4,227.13l.76-.46c.55-.33.99-.76,1.46-1.15l-.89-4.66c-1.37-7.16-3.16-10.74-5.37-10.74-1.05,0-1.96.87-2.73,2.55,3.3,1.01,4.99,2.39,4.99,4.16,0,1.37-.53,2.37-1.58,3l-4.27,1.42-1.15-.12c-.3,2.29-.53,4.95-.71,7.95l2.74.29,6.75-2.25Z"/>
      <path class="cls-3" d="M143.4,227.13l.76-.46c.55-.33.99-.76,1.46-1.15l-.89-4.66c-1.37-7.16-3.16-10.74-5.37-10.74-1.05,0-1.96.87-2.73,2.55,3.3,1.01,4.99,2.39,4.99,4.16,0,1.37-.53,2.37-1.58,3l-4.27,1.42-1.15-.12c-.3,2.29-.53,4.95-.71,7.95l2.74.29,6.75-2.25Z"/>
    </g>
    <g>
      <path class="cls-1" d="M137.3,119.08c0,2.72.26,5.36.65,7.96,8.65-.61,16.13-2.58,22.44-5.93-1.28-2.51-2.15-5.09-2.61-7.74-5.56,3.21-12.4,5.14-20.47,5.71Z"/>
      <path class="cls-3" d="M137.3,119.08c0,2.72.26,5.36.65,7.96,8.65-.61,16.13-2.58,22.44-5.93-1.28-2.51-2.15-5.09-2.61-7.74-5.56,3.21-12.4,5.14-20.47,5.71Z"/>
    </g>
    <g>
      <path class="cls-1" d="M160.38,121.11c-6.3,3.35-13.79,5.32-22.44,5.93.69,4.67,1.97,9.17,3.89,13.46,2.35.21,4.77.35,7.32.35,8.91,0,17.06-1.67,24.49-4.94-6.19-4.65-10.6-9.59-13.26-14.8Z"/>
      <path class="cls-3" d="M160.38,121.11c-6.3,3.35-13.79,5.32-22.44,5.93.69,4.67,1.97,9.17,3.89,13.46,2.35.21,4.77.35,7.32.35,8.91,0,17.06-1.67,24.49-4.94-6.19-4.65-10.6-9.59-13.26-14.8Z"/>
    </g>
    <g>
      <path class="cls-1" d="M140.03,219.84c1.05-.63,1.58-1.63,1.58-3,0-1.77-1.69-3.16-4.99-4.16-.84,1.83-1.51,4.64-2.01,8.46l1.15.12,4.27-1.42Z"/>
      <path class="cls-3" d="M140.03,219.84c1.05-.63,1.58-1.63,1.58-3,0-1.77-1.69-3.16-4.99-4.16-.84,1.83-1.51,4.64-2.01,8.46l1.15.12,4.27-1.42Z"/>
    </g>
    <g>
      <path class="cls-1" d="M180.29,69.85c.8,3.3,1.25,6.8,1.37,10.5,2.91-.57,6.01-.88,9.35-.88,6.97,0,13.06,1.39,18.37,4.03.07-1.26.16-2.5.16-3.79,0-3.74-.42-7.34-1.2-10.82-3.97-.3-8.28-.48-13.07-.48-5.29,0-10.26.51-14.98,1.44Z"/>
      <path class="cls-3" d="M180.29,69.85c.8,3.3,1.25,6.8,1.37,10.5,2.91-.57,6.01-.88,9.35-.88,6.97,0,13.06,1.39,18.37,4.03.07-1.26.16-2.5.16-3.79,0-3.74-.42-7.34-1.2-10.82-3.97-.3-8.28-.48-13.07-.48-5.29,0-10.26.51-14.98,1.44Z"/>
    </g>
  </g>
</svg>