<?xml version="1.0" encoding="UTF-8"?>
<svg id="Layer_1" data-name="Layer 1" xmlns="http://www.w3.org/2000/svg" viewBox="0 0 312.58 298.99">
  <defs>
    <style>
      .cls-1 {
        fill: #996632;
      }
    </style>
  </defs>
  <path class="cls-1" d="M121.92,266.48c1.85-6.21,2.33-12.05.57-18.31h-49.77s-1.16,1.16-1.16,1.16l-1.05,1.84c-.96,4.43-.58,9.11,1,13.35,1.4,3.77,3.62,7.66,6.74,10.27,7.68,6.4,16.59,10.48,25.05,15.63.33.2,6.3-3.34,7.14-3.74,2.88-1.36,5.39-3.32,8.03-5.06,2.91-1.92,5.73-3.97,8.29-6.34,6.91-6.37,11.5-15.58,9.07-25.08-.24-.94-.78-2.05-1.74-2.05-1.61,0-3.21,0-4.82,0,.6,5.43-1,12.79-3.91,17.44-1.88,3.01-4.42,5.62-7.35,7.62l-1.74,1.49s3.22-3.88,3.22-3.89c1.08-1.3,1.92-2.72,2.4-4.34Z"/>
  <path class="cls-1" d="M275.83,104.44c-4.03-4.97-13.88-.66-17.56-5.89-2.33-3.31-.23-7.87,2.2-11.1,4.34-5.76,9.82-10.83,12.59-17.49,2.77-6.65,1.66-15.8-4.78-19.05-2.34-1.19-4.52-.46-4.49-3.08,0-.77,2.24-2.75,2.54-3.46,2.64-6.24.8-12.53-2.76-17.98-2.06-3.16.03-9.87-1.04-13.42-.5-1.67-2.4-3.33-4.05-3.89-1.13-.38-2.35,0-3.48.38-3.61,1.22-6.33,5.72-9.81,7.35-4.69,2.19-9.96,1.79-13.02,5.91-2.3,3.09-4.91,7.32-8.67,6.51-2.31-.49-3.78-2.81-5.96-3.71-4.78-1.96-9.19,3.54-10.97,8.39-2.28,6.22-3.59,12.79-3.87,19.41-.19,4.51-1.29,10.62-5.8,10.75-4.75.14-5.97-6.47-9.03-10.11-2.67-3.18-7.67-4.11-11.3-2.09-4.86,2.7-6.16,9.05-6.39,14.6-.23,5.56-.08,11.64-3.54,15.99-3.36,4.22-9.5,5.88-11.99,10.67-1.65,3.16-1.28,6.97-.65,10.48,2.2,12.4,6.9,17.29,4.49,30.76-.25,1.38-1.5,4.78-2.88,5.01-6.52,1.09-7.44-2.63-10.01-3.06-5.48-.91-9.45,10.55-12.02,15.47-2.57,4.92-11.94,4.95-13.46,10.29-1.52,5.34.63,11.25-3.49,14.97-2.33,2.1-3.09,2.79-7.28,5.09-1.25.69-17.62,6.05-35.2,7.85-9.75,1-49.15,2.22-56.38,2.06-10.08-.15,3.04,8.33,7.71,9.5,16.96,4.24,39.54.86,56.73-1.81,1.08-.17,2.18-.33,3.27-.4.51-.03,1.01-.1,1.52-.09.53.01,1.05.07,1.57.18.64.13,1.28.3,1.91.51.84.29,1.68.66,2.36,1.25.7.6,1.29,1.39,1.77,2.18.23.38.43.76.62,1.16.5,1.09,1.15,2.25.97,3.5,0,.04-.01.08-.04.11-.02.03-.06.05-.1.06-3.15,1.29-6.3,2.59-9.36,4.09-3.02,1.48-5.95,3.16-8.63,5.2-.88.67-1.74,1.38-2.56,2.13-5.83,5.35-9.77,13.48-7.98,21.19,22.81,0,45.63,0,68.44,0,1.82-9.68-2.95-20.25-11.41-25.29-2.49-1.48-5.2-2.54-7.86-3.66-1.23-.52-2.41-1.18-3.66-1.66-1.16-.44-2.14-1.07-2.99-1.98-.58-.62-1.07-1.32-1.46-2.07-.39-.76-.85-1.48-1.09-2.3-.32-1.06-.1-2.12.22-3.15.27-.87.6-1.8,1.06-2.58.2-.33.42-.65.73-.87.26-.19.55-.3.85-.39,1.85-.5,3.76-.8,5.64-1.2.98-.21,1.96-.42,2.94-.64,2.76-.62,5.95-2.2,8.61-3.19,1.23-.46,3.25-1.49,4.46-2,1.24-.51,2.44-1.1,3.65-1.68.72-.34,1.43-.69,2.16-1.02,2.59-1.16,5.07-2.54,7.52-3.97,2.61-1.53,5.18-3.13,7.74-4.73,29.64-18.49,51.94-46.99,68.46-77.78-18.62,47.02-50.97,85.82-99.48,100.12,4.55,2.27,13.52,1.36,18.6,1.38,13.78.04,15.12-.93,28.81-2.53,5.71-.67,12.37-2.17,14.65-7.45,1.9-4.4-.08-9.94,2.44-14.01,2.35-3.78,7.42-4.54,11.84-5.15,10.89-1.5,21.58-4.38,31.75-8.56,6.48-2.66,13.34-6.52,15.46-13.19.75-2.36.84-4.93,1.86-7.19,2.2-4.86,7.85-6.88,12.48-9.52,8.08-4.62,14.21-12.55,16.64-21.53.78-2.88,1.09-6.25-.78-8.57Z"/>
</svg>