<?xml version="1.0" encoding="UTF-8"?>
<svg id="Layer_1" data-name="Layer 1" xmlns="http://www.w3.org/2000/svg" viewBox="0 0 312.58 298.99">
  <defs>
    <style>
      .cls-1 {
        fill: #8b5e3c;
      }

      .cls-2 {
        fill: none;
        stroke: #8b5e3c;
        stroke-miterlimit: 10;
        stroke-width: .25px;
      }
    </style>
  </defs>
  <g>
    <path class="cls-1" d="M104.94,218.54c-1.81-1.33-3.02-5.91-3.62-13.76-.72-9.05-1.09-17.68-1.09-25.88v-45.25c0-.48.61-1.15,1.82-1.99l13.07,4.89c2.25.84,4.65,1.52,7.13,2.1-1.53-4.38-2.6-8.9-3.21-13.57-13.45-.31-20.26-3.22-20.26-8.81V47.32c0-11.1,1.75-18.22,5.25-21.36,3.14-2.77,10.38-4.16,21.72-4.16,15.44,0,28.08,4.8,37.92,14.39,4.35,4.25,7.69,9.09,10.11,14.46,6.35-1.35,13.06-2.07,20.15-2.07,4.22,0,8.15.11,11.87.31-.49-1.13-.92-2.28-1.49-3.38-12.19-23.53-35.66-35.29-70.41-35.29h-52.31l-22.08-.36-15.2-.72c-4.71.85-7.06,3.08-7.06,6.7,0,2.9,4.23,4.65,12.7,5.25l9.66.72c6.08,2.41,9.13,6.46,9.13,12.13v133.21l-.36,15.93v9.59l-1.45,18.1c-1.21,4.22-3.44,7.24-6.7,9.05-3.98,1.09-7.96,2.23-11.95,3.44-5.67,1.57-8.51,3.62-8.51,6.15,0,.48.36,1.33,1.09,2.53l4.16.9,43.26-.9h22.26l4.75.17c.55-4.22,1.31-7.83,2.35-10.81-7.46-1.07-11.72-1.98-12.7-2.75Z"/>
    <path class="cls-2" d="M104.94,218.54c-1.81-1.33-3.02-5.91-3.62-13.76-.72-9.05-1.09-17.68-1.09-25.88v-45.25c0-.48.61-1.15,1.82-1.99l13.07,4.89c2.25.84,4.65,1.52,7.13,2.1-1.53-4.38-2.6-8.9-3.21-13.57-13.45-.31-20.26-3.22-20.26-8.81V47.32c0-11.1,1.75-18.22,5.25-21.36,3.14-2.77,10.38-4.16,21.72-4.16,15.44,0,28.08,4.8,37.92,14.39,4.35,4.25,7.69,9.09,10.11,14.46,6.35-1.35,13.06-2.07,20.15-2.07,4.22,0,8.15.11,11.87.31-.49-1.13-.92-2.28-1.49-3.38-12.19-23.53-35.66-35.29-70.41-35.29h-52.31l-22.08-.36-15.2-.72c-4.71.85-7.06,3.08-7.06,6.7,0,2.9,4.23,4.65,12.7,5.25l9.66.72c6.08,2.41,9.13,6.46,9.13,12.13v133.21l-.36,15.93v9.59l-1.45,18.1c-1.21,4.22-3.44,7.24-6.7,9.05-3.98,1.09-7.96,2.23-11.95,3.44-5.67,1.57-8.51,3.62-8.51,6.15,0,.48.36,1.33,1.09,2.53l4.16.9,43.26-.9h22.26l4.75.17c.55-4.22,1.31-7.83,2.35-10.81-7.46-1.07-11.72-1.98-12.7-2.75Z"/>
  </g>
  <g>
    <path class="cls-1" d="M178.02,80.89c-1.37,13.35-6.58,23.9-15.7,31.59-.21.18-.45.33-.66.5,2.72,5.97,8.22,11.73,16.45,17.24,4.31-2.78,8.4-6.06,12.2-9.96,9.95-10.19,16.17-21.99,18.69-35.42-5.43-3.54-11.97-5.3-19.95-5.3-4.1,0-7.73.49-11.03,1.35Z"/>
    <path class="cls-2" d="M178.02,80.89c-1.37,13.35-6.58,23.9-15.7,31.59-.21.18-.45.33-.66.5,2.72,5.97,8.22,11.73,16.45,17.24,4.31-2.78,8.4-6.06,12.2-9.96,9.95-10.19,16.17-21.99,18.69-35.42-5.43-3.54-11.97-5.3-19.95-5.3-4.1,0-7.73.49-11.03,1.35Z"/>
  </g>
  <g>
    <path class="cls-1" d="M167.92,61.65c2.84-.94,5.8-1.67,8.84-2.27"/>
    <path class="cls-2" d="M167.92,61.65c2.84-.94,5.8-1.67,8.84-2.27"/>
  </g>
  <g>
    <path class="cls-1" d="M218.77,80.91c3.66,3.29,6.88,7.27,9.55,12.11,1.81,3.26,3.08,7.6,3.8,13.03,1.45,6.15,3.56,9.23,6.33,9.23,1.45-.48,2.53-1.27,3.26-2.35l1.09-5.43-.72-26.06c-.24-6.88-.97-11.16-2.17-12.85-3.44-4.48-10.64-7.57-21.56-9.27.64,3.71,1.08,7.47,1.08,11.36,0,3.5-.27,6.89-.66,10.24Z"/>
    <path class="cls-2" d="M218.77,80.91c3.66,3.29,6.88,7.27,9.55,12.11,1.81,3.26,3.08,7.6,3.8,13.03,1.45,6.15,3.56,9.23,6.33,9.23,1.45-.48,2.53-1.27,3.26-2.35l1.09-5.43-.72-26.06c-.24-6.88-.97-11.16-2.17-12.85-3.44-4.48-10.64-7.57-21.56-9.27.64,3.71,1.08,7.47,1.08,11.36,0,3.5-.27,6.89-.66,10.24Z"/>
  </g>
  <g>
    <path class="cls-1" d="M150.49,104.06c0-10.86,3.8-19.3,11.4-25.34,2.23-1.77,4.7-3.23,7.35-4.44,0-.25.03-.47.03-.72,0-4.28-.48-8.23-1.35-11.91-7.49,2.47-14.27,6.1-20.33,10.92-13.39,10.74-20.09,25.1-20.09,43.08,0,.04,0,.09,0,.13,9.25-.65,17.09-2.86,23.46-6.54-.3-1.7-.48-3.43-.48-5.18Z"/>
    <path class="cls-2" d="M150.49,104.06c0-10.86,3.8-19.3,11.4-25.34,2.23-1.77,4.7-3.23,7.35-4.44,0-.25.03-.47.03-.72,0-4.28-.48-8.23-1.35-11.91-7.49,2.47-14.27,6.1-20.33,10.92-13.39,10.74-20.09,25.1-20.09,43.08,0,.04,0,.09,0,.13,9.25-.65,17.09-2.86,23.46-6.54-.3-1.7-.48-3.43-.48-5.18Z"/>
  </g>
  <g>
    <path class="cls-1" d="M137.96,149.75c2.48,3.67,5.37,7.21,8.74,10.61,8.93,9.05,22.81,18.34,41.63,27.87,16.77,8.57,28.9,16.95,36.38,25.16,6.88,7.6,10.32,16.41,10.32,26.42,0,25.94-15.09,38.91-45.25,38.91-11.95,0-22.87-3.38-32.76-10.14-10.74-7.24-17.19-16.47-19.37-27.69l-.61-3.17c-.54.46-1.04.95-1.67,1.32l-.87.53-7.73,2.58-3.14-.34c-.3,5.08-.46,11.04-.46,17.91v2.71c0,3.38.12,5.85.36,7.42.6,4.1,2.71,7.18,6.33,9.23,15.2,8.69,32.58,13.03,52.13,13.03,23.17,0,41.51-5.67,55.02-17.01,14.48-12.07,21.72-29.5,21.72-52.31,0-17.49-7.06-32.88-21.18-46.15-9.65-9.05-24.56-18.4-44.71-28.05l-3.8-1.81c-4-1.89-7.64-3.85-11.02-5.84-11.01,5.92-23.35,8.92-36.93,8.92-1.07,0-2.08-.09-3.14-.12Z"/>
    <path class="cls-2" d="M137.96,149.75c2.48,3.67,5.37,7.21,8.74,10.61,8.93,9.05,22.81,18.34,41.63,27.87,16.77,8.57,28.9,16.95,36.38,25.16,6.88,7.6,10.32,16.41,10.32,26.42,0,25.94-15.09,38.91-45.25,38.91-11.95,0-22.87-3.38-32.76-10.14-10.74-7.24-17.19-16.47-19.37-27.69l-.61-3.17c-.54.46-1.04.95-1.67,1.32l-.87.53-7.73,2.58-3.14-.34c-.3,5.08-.46,11.04-.46,17.91v2.71c0,3.38.12,5.85.36,7.42.6,4.1,2.71,7.18,6.33,9.23,15.2,8.69,32.58,13.03,52.13,13.03,23.17,0,41.51-5.67,55.02-17.01,14.48-12.07,21.72-29.5,21.72-52.31,0-17.49-7.06-32.88-21.18-46.15-9.65-9.05-24.56-18.4-44.71-28.05l-3.8-1.81c-4-1.89-7.64-3.85-11.02-5.84-11.01,5.92-23.35,8.92-36.93,8.92-1.07,0-2.08-.09-3.14-.12Z"/>
  </g>
  <g>
    <path class="cls-1" d="M141.09,140.72c-2.92,0-5.69-.16-8.39-.4,1.45,3.24,3.19,6.38,5.25,9.43,1.05.03,2.06.12,3.14.12,13.58,0,25.93-3,36.93-8.92-3.24-1.91-6.21-3.87-8.88-5.88-8.51,3.74-17.85,5.65-28.05,5.65Z"/>
    <path class="cls-2" d="M141.09,140.72c-2.92,0-5.69-.16-8.39-.4,1.45,3.24,3.19,6.38,5.25,9.43,1.05.03,2.06.12,3.14.12,13.58,0,25.93-3,36.93-8.92-3.24-1.91-6.21-3.87-8.88-5.88-8.51,3.74-17.85,5.65-28.05,5.65Z"/>
  </g>
  <g>
    <path class="cls-1" d="M169.28,73.57c0,.25-.03.48-.03.72,2.8-1.27,5.82-2.24,9.09-2.88-.13-4.24-.65-8.25-1.57-12.03-3.04.6-6.01,1.34-8.84,2.27.88,3.69,1.35,7.63,1.35,11.91Z"/>
    <path class="cls-2" d="M169.28,73.57c0,.25-.03.48-.03.72,2.8-1.27,5.82-2.24,9.09-2.88-.13-4.24-.65-8.25-1.57-12.03-3.04.6-6.01,1.34-8.84,2.27.88,3.69,1.35,7.63,1.35,11.91Z"/>
  </g>
  <g>
    <path class="cls-1" d="M210.09,75.01c3.15,1.56,6.04,3.53,8.68,5.9.39-3.34.66-6.74.66-10.24,0-3.88-.43-7.65-1.08-11.36-2.87-.45-6.06-.78-9.44-1.03.89,3.99,1.37,8.11,1.37,12.39,0,1.47-.11,2.9-.19,4.34Z"/>
    <path class="cls-2" d="M210.09,75.01c3.15,1.56,6.04,3.53,8.68,5.9.39-3.34.66-6.74.66-10.24,0-3.88-.43-7.65-1.08-11.36-2.87-.45-6.06-.78-9.44-1.03.89,3.99,1.37,8.11,1.37,12.39,0,1.47-.11,2.9-.19,4.34Z"/>
  </g>
  <g>
    <path class="cls-1" d="M134.5,239.57l.87-.53c.62-.38,1.13-.86,1.67-1.32l-1.02-5.33c-1.57-8.2-3.62-12.31-6.15-12.31-1.21,0-2.24,1-3.12,2.92,3.78,1.16,5.71,2.74,5.71,4.77,0,1.57-.61,2.71-1.81,3.44l-4.89,1.63-1.32-.14c-.34,2.62-.61,5.67-.82,9.11l3.14.34,7.73-2.58Z"/>
    <path class="cls-2" d="M134.5,239.57l.87-.53c.62-.38,1.13-.86,1.67-1.32l-1.02-5.33c-1.57-8.2-3.62-12.31-6.15-12.31-1.21,0-2.24,1-3.12,2.92,3.78,1.16,5.71,2.74,5.71,4.77,0,1.57-.61,2.71-1.81,3.44l-4.89,1.63-1.32-.14c-.34,2.62-.61,5.67-.82,9.11l3.14.34,7.73-2.58Z"/>
  </g>
  <g>
    <path class="cls-1" d="M127.51,115.78c0,3.12.3,6.14.74,9.12,9.91-.7,18.48-2.96,25.7-6.8-1.47-2.88-2.46-5.83-2.99-8.86-6.37,3.68-14.2,5.88-23.46,6.54Z"/>
    <path class="cls-2" d="M127.51,115.78c0,3.12.3,6.14.74,9.12,9.91-.7,18.48-2.96,25.7-6.8-1.47-2.88-2.46-5.83-2.99-8.86-6.37,3.68-14.2,5.88-23.46,6.54Z"/>
  </g>
  <g>
    <path class="cls-1" d="M153.96,118.1c-7.22,3.84-15.8,6.09-25.7,6.8.79,5.36,2.25,10.5,4.45,15.42,2.7.24,5.47.4,8.39.4,10.2,0,19.54-1.92,28.05-5.65-7.09-5.33-12.14-10.98-15.19-16.96Z"/>
    <path class="cls-2" d="M153.96,118.1c-7.22,3.84-15.8,6.09-25.7,6.8.79,5.36,2.25,10.5,4.45,15.42,2.7.24,5.47.4,8.39.4,10.2,0,19.54-1.92,28.05-5.65-7.09-5.33-12.14-10.98-15.19-16.96Z"/>
  </g>
  <g>
    <path class="cls-1" d="M130.64,231.21c1.2-.72,1.81-1.87,1.81-3.44,0-2.03-1.94-3.61-5.71-4.77-.96,2.1-1.73,5.31-2.3,9.7l1.32.14,4.89-1.63Z"/>
    <path class="cls-2" d="M130.64,231.21c1.2-.72,1.81-1.87,1.81-3.44,0-2.03-1.94-3.61-5.71-4.77-.96,2.1-1.73,5.31-2.3,9.7l1.32.14,4.89-1.63Z"/>
  </g>
  <g>
    <path class="cls-1" d="M176.77,59.38c.91,3.78,1.43,7.79,1.57,12.03,3.33-.66,6.89-1.01,10.71-1.01,7.99,0,14.97,1.59,21.05,4.61.08-1.44.19-2.86.19-4.34,0-4.28-.48-8.41-1.37-12.39-4.55-.35-9.49-.55-14.97-.55-6.06,0-11.76.59-17.16,1.65Z"/>
    <path class="cls-2" d="M176.77,59.38c.91,3.78,1.43,7.79,1.57,12.03,3.33-.66,6.89-1.01,10.71-1.01,7.99,0,14.97,1.59,21.05,4.61.08-1.44.19-2.86.19-4.34,0-4.28-.48-8.41-1.37-12.39-4.55-.35-9.49-.55-14.97-.55-6.06,0-11.76.59-17.16,1.65Z"/>
  </g>
</svg>